<svg width="51" height="51" viewBox="0 0 51 51" fill="none" xmlns="http://www.w3.org/2000/svg"><g clip-path="url(#clip0_1_990)"><path d="M13.3418 14.7808C12.821 15.1388 12.2676 15.4074 11.6816 15.5864C11.0957 15.7655 10.4935 15.855 9.875 15.855C9.0612 15.855 8.26367 15.7004 7.48242 15.3911C6.70117 15.0819 6.01758 14.6343 5.43164 14.0483C4.8457 13.4624 4.39811 12.7788 4.08887 11.9976C3.77962 11.2163 3.625 10.4188 3.625 9.60498C3.625 8.98649 3.71452 8.38428 3.89355 7.79834C4.07259 7.2124 4.34115 6.65902 4.69922 6.13818C5.02474 5.61735 5.4235 5.16162 5.89551 4.771C6.36751 4.38037 6.89648 4.07113 7.48242 3.84326C8.06836 3.58284 8.66243 3.42822 9.26465 3.37939C9.86686 3.33057 10.4772 3.35498 11.0957 3.45264C11.7142 3.58284 12.292 3.79443 12.8291 4.0874C13.3662 4.38037 13.8626 4.73845 14.3184 5.16162C14.7415 5.61735 15.0996 6.11377 15.3926 6.65088C15.6855 7.18799 15.8971 7.76579 16.0273 8.38428C16.125 9.00277 16.1494 9.61312 16.1006 10.2153C16.0518 10.8175 15.8971 11.4116 15.6367 11.9976C15.4089 12.5835 15.0996 13.1125 14.709 13.5845C14.3184 14.0565 13.8626 14.4552 13.3418 14.7808ZM11.6328 7.01709C11.3724 6.85433 11.0876 6.72412 10.7783 6.62646C10.4691 6.52881 10.168 6.47998 9.875 6.47998C9.45182 6.47998 9.05306 6.56136 8.67871 6.72412C8.30436 6.88688 7.9707 7.11475 7.67773 7.40771C7.38477 7.70068 7.1569 8.03434 6.99414 8.40869C6.83138 8.78304 6.75 9.1818 6.75 9.60498C6.75 9.89795 6.79883 10.1991 6.89648 10.5083C6.99414 10.8175 7.12435 11.1024 7.28711 11.3628C7.44987 11.5907 7.65332 11.8022 7.89746 11.9976C8.1416 12.1929 8.41016 12.3556 8.70312 12.4858C8.96354 12.616 9.24837 12.6974 9.55762 12.73C9.86686 12.7625 10.168 12.7463 10.4609 12.6812C10.7865 12.616 11.0876 12.5103 11.3643 12.3638C11.641 12.2173 11.877 12.0301 12.0723 11.8022C12.3001 11.6069 12.4873 11.3709 12.6338 11.0942C12.7803 10.8175 12.8861 10.5164 12.9512 10.1909C13.0163 9.89795 13.0326 9.59684 13 9.2876C12.9674 8.97835 12.8861 8.69352 12.7559 8.43311C12.6257 8.14014 12.4629 7.87158 12.2676 7.62744C12.0723 7.3833 11.8607 7.17985 11.6328 7.01709ZM34.875 18.98V17.4175C34.875 16.8966 34.8262 16.384 34.7285 15.8794C34.6309 15.3748 34.4844 14.8947 34.2891 14.439C34.0938 13.9507 33.8496 13.495 33.5566 13.0718C33.2637 12.6486 32.9382 12.258 32.5801 11.8999C32.222 11.5418 31.8314 11.2163 31.4082 10.9233C30.985 10.6304 30.5293 10.3862 30.041 10.1909C29.5853 9.99561 29.1051 9.84912 28.6006 9.75146C28.096 9.65381 27.5833 9.60498 27.0625 9.60498H22.375V6.47998H27.0625C28.5273 6.47998 29.9271 6.75667 31.2617 7.31006C32.5964 7.86345 33.7682 8.66097 34.7773 9.70264C35.819 10.7118 36.6165 11.8836 37.1699 13.2183C37.7233 14.5529 38 15.9526 38 17.4175V18.98H34.875ZM6.75 31.48V33.0425C6.75 34.0841 6.94531 35.0851 7.33594 36.0454C7.72656 37.0057 8.29622 37.8439 9.04492 38.5601C9.76107 39.3088 10.5993 39.8784 11.5596 40.269C12.5199 40.6597 13.5208 40.855 14.5625 40.855H19.25V43.98H14.5625C13.0977 43.98 11.6979 43.7033 10.3633 43.1499C9.02865 42.5965 7.85677 41.799 6.84766 40.7573C5.80599 39.7482 5.00846 38.5763 4.45508 37.2417C3.90169 35.9071 3.625 34.5073 3.625 33.0425V31.48H6.75ZM14.5625 17.4175H5.1875C4.56901 17.4175 3.97493 17.5396 3.40527 17.7837C2.83561 18.0278 2.32292 18.3615 1.86719 18.7847C1.44401 19.2404 1.11035 19.7531 0.866211 20.3228C0.62207 20.8924 0.5 21.4865 0.5 22.105V25.23H3.625V22.105C3.625 21.9097 3.66569 21.7144 3.74707 21.519C3.82845 21.3237 3.93424 21.1447 4.06445 20.9819C4.22721 20.8517 4.40625 20.7459 4.60156 20.6646C4.79688 20.5832 4.99219 20.5425 5.1875 20.5425H14.5625C14.7578 20.5425 14.9531 20.5832 15.1484 20.6646C15.3438 20.7459 15.5228 20.8517 15.6855 20.9819C15.8158 21.1447 15.9215 21.3237 16.0029 21.519C16.0843 21.7144 16.125 21.9097 16.125 22.105V25.23H19.25V22.105C19.25 21.4865 19.1279 20.8924 18.8838 20.3228C18.6396 19.7531 18.306 19.2404 17.8828 18.7847C17.4271 18.3615 16.9144 18.0278 16.3447 17.7837C15.7751 17.5396 15.181 17.4175 14.5625 17.4175ZM30.1875 39.2925C29.569 39.2925 28.9749 39.4146 28.4053 39.6587C27.8356 39.9028 27.3229 40.2365 26.8672 40.6597C26.444 41.1154 26.1104 41.6281 25.8662 42.1978C25.6221 42.7674 25.5 43.3615 25.5 43.98V47.105H28.625V43.98C28.625 43.7847 28.6657 43.5894 28.7471 43.394C28.8285 43.1987 28.9342 43.0197 29.0645 42.8569C29.2272 42.7267 29.4062 42.6209 29.6016 42.5396C29.7969 42.4582 29.9922 42.4175 30.1875 42.4175H39.5625C39.7578 42.4175 39.9531 42.4582 40.1484 42.5396C40.3438 42.6209 40.5228 42.7267 40.6855 42.8569C40.8158 43.0197 40.9216 43.1987 41.0029 43.394C41.0843 43.5894 41.125 43.7847 41.125 43.98V47.105H44.25V43.98C44.25 43.3615 44.1279 42.7674 43.8838 42.1978C43.6396 41.6281 43.306 41.1154 42.8828 40.6597C42.4271 40.2365 41.9144 39.9028 41.3447 39.6587C40.7751 39.4146 40.181 39.2925 39.5625 39.2925H30.1875ZM29.6992 34.9468C29.3411 34.4259 29.0726 33.8726 28.8936 33.2866C28.7145 32.7007 28.625 32.0985 28.625 31.48C28.625 30.6662 28.7796 29.8687 29.0889 29.0874C29.3981 28.3062 29.8457 27.6226 30.4316 27.0366C31.0176 26.4507 31.7012 26.0031 32.4824 25.6938C33.2637 25.3846 34.0612 25.23 34.875 25.23C35.4935 25.23 36.0957 25.3195 36.6816 25.4985C37.2676 25.6776 37.821 25.9461 38.3418 26.3042C38.8626 26.6297 39.3184 27.0285 39.709 27.5005C40.0996 27.9725 40.4089 28.5015 40.6367 29.0874C40.8971 29.6733 41.0518 30.2674 41.1006 30.8696C41.1494 31.4718 41.125 32.0822 41.0273 32.7007C40.8971 33.3192 40.6855 33.897 40.3926 34.4341C40.0996 34.9712 39.7415 35.4676 39.3184 35.9233C38.8626 36.3465 38.3662 36.7046 37.8291 36.9976C37.292 37.2905 36.7142 37.5021 36.0957 37.6323C35.4772 37.73 34.8669 37.7544 34.2646 37.7056C33.6624 37.6567 33.0684 37.5021 32.4824 37.2417C31.8965 37.0138 31.3675 36.7046 30.8955 36.314C30.4235 35.9233 30.0247 35.4676 29.6992 34.9468ZM37.4629 33.2378C37.6257 32.9774 37.7559 32.6925 37.8535 32.3833C37.9512 32.0741 38 31.7729 38 31.48C38 31.0568 37.9186 30.658 37.7559 30.2837C37.5931 29.9093 37.3652 29.5757 37.0723 29.2827C36.7793 28.9897 36.4456 28.7619 36.0713 28.5991C35.6969 28.4364 35.2982 28.355 34.875 28.355C34.582 28.355 34.2809 28.4038 33.9717 28.5015C33.6624 28.5991 33.3776 28.7293 33.1172 28.8921C32.8893 29.0548 32.6777 29.2583 32.4824 29.5024C32.2871 29.7466 32.1243 30.0151 31.9941 30.3081C31.8639 30.5685 31.7826 30.8534 31.75 31.1626C31.7174 31.4718 31.7337 31.7729 31.7988 32.0659C31.8639 32.3914 31.9697 32.6925 32.1162 32.9692C32.2627 33.2459 32.4499 33.4819 32.6777 33.6772C32.873 33.9051 33.1091 34.0923 33.3857 34.2388C33.6624 34.3853 33.9635 34.491 34.2891 34.5562C34.582 34.6213 34.8831 34.6375 35.1924 34.605C35.5016 34.5724 35.7865 34.491 36.0469 34.3608C36.3398 34.2306 36.6084 34.0679 36.8525 33.8726C37.0967 33.6772 37.3001 33.4657 37.4629 33.2378Z" fill="url(#paint0_linear_1_990)"></path></g><defs><linearGradient id="paint0_linear_1_990" x1="0.5" y1="3.35498" x2="51.6526" y2="35.2227" gradientUnits="userSpaceOnUse"><stop stop-color="#2600FC"></stop><stop offset="1" stop-color="#FF00EA"></stop></linearGradient><clipPath id="clip0_1_990"><rect width="50" height="50" fill="white" transform="matrix(1 0 0 -1 0.5 50.23)"></rect></clipPath></defs></svg>